HIERARCHY
ROOT Hips
{
	OFFSET -14.64140 90.27770 -84.91600
	CHANNELS 6 Xposition Yposition Zposition Zrotation Xrotation Yrotation
	JOINT Spine
	{
		OFFSET 0.00000 13.20850 -1.60436
		CHANNELS 3 Zrotation Xrotation Yrotation
		JOINT Spine1
		{
			OFFSET 0.00000 8.61716 0.00000
			CHANNELS 3 Zrotation Xrotation Yrotation
			JOINT Spine2
			{
				OFFSET 0.00000 8.61717 0.00000
				CHANNELS 3 Zrotation Xrotation Yrotation
				JOINT Spine3
				{
					OFFSET 0.00000 8.61717 0.00000
					CHANNELS 3 Zrotation Xrotation Yrotation
					JOINT Neck
					{
						OFFSET 0.00000 11.07920 1.10792
						CHANNELS 3 Zrotation Xrotation Yrotation
						JOINT Neck1
						{
							OFFSET 0.00000 7.08032 0.00000
							CHANNELS 3 Zrotation Xrotation Yrotation
							JOINT Head
							{
								OFFSET 0.00000 7.08031 0.00000
								CHANNELS 3 Zrotation Xrotation Yrotation
								End site
								{
									OFFSET 0.00000 0.00000 0.00000
								}
							}
						}
					}
					JOINT RightShoulder
					{
						OFFSET -0.01000 7.91373 5.19711
						CHANNELS 3 Zrotation Xrotation Yrotation
						JOINT RightArm
						{
							OFFSET -18.41580 0.00000 0.00000
							CHANNELS 3 Zrotation Xrotation Yrotation
							JOINT RightForeArm
							{
								OFFSET -29.11090 0.00000 0.00000
								CHANNELS 3 Zrotation Xrotation Yrotation
								JOINT RightHand
								{
									OFFSET -24.65040 0.00000 0.00000
									CHANNELS 3 Zrotation Xrotation Yrotation
									JOINT RightHandThumb1
									{
										OFFSET -5.35114 -0.85590 3.97906
										CHANNELS 3 Zrotation Xrotation Yrotation
										JOINT RightHandThumb2
										{
											OFFSET -4.52789 0.00000 0.00000
											CHANNELS 3 Zrotation Xrotation Yrotation
											JOINT RightHandThumb3
											{
												OFFSET -2.46976 0.00000 0.00000
												CHANNELS 3 Zrotation Xrotation Yrotation
												End site
												{
													OFFSET 0.00000 0.00000 0.00000
												}
											}
										}
									}
									JOINT RightHandIndex1
									{
										OFFSET -14.26970 0.00000 2.88139
										CHANNELS 3 Zrotation Xrotation Yrotation
										JOINT RightHandIndex2
										{
											OFFSET -5.48836 0.00000 0.00000
											CHANNELS 3 Zrotation Xrotation Yrotation
											JOINT RightHandIndex3
											{
												OFFSET -3.01859 0.00000 0.00000
												CHANNELS 3 Zrotation Xrotation Yrotation
												End site
												{
													OFFSET 0.00000 0.00000 0.00000
												}
											}
										}
									}
									JOINT RightHandMiddle1
									{
										OFFSET -14.26970 0.00000 -0.09147
										CHANNELS 3 Zrotation Xrotation Yrotation
										JOINT RightHandMiddle2
										{
											OFFSET -6.17441 0.00000 0.00000
											CHANNELS 3 Zrotation Xrotation Yrotation
											JOINT RightHandMiddle3
											{
												OFFSET -3.56743 0.00000 0.00000
												CHANNELS 3 Zrotation Xrotation Yrotation
												End site
												{
													OFFSET 0.00000 0.00000 0.00000
												}
											}
										}
									}
									JOINT RightHandRing1
									{
										OFFSET -12.69180 0.00000 -3.06433
										CHANNELS 3 Zrotation Xrotation Yrotation
										JOINT RightHandRing2
										{
											OFFSET -5.62556 0.00000 0.00000
											CHANNELS 3 Zrotation Xrotation Yrotation
											JOINT RightHandRing3
											{
												OFFSET -3.56744 0.00000 0.00000
												CHANNELS 3 Zrotation Xrotation Yrotation
												End site
												{
													OFFSET 0.00000 0.00000 0.00000
												}
											}
										}
									}
									JOINT RightHandPinky1
									{
										OFFSET -11.11390 0.00000 -6.03719
										CHANNELS 3 Zrotation Xrotation Yrotation
										JOINT RightHandPinky2
										{
											OFFSET -4.52789 0.00000 0.00000
											CHANNELS 3 Zrotation Xrotation Yrotation
											JOINT RightHandPinky3
											{
												OFFSET -2.46976 0.00000 0.00000
												CHANNELS 3 Zrotation Xrotation Yrotation
												End site
												{
													OFFSET 0.00000 0.00000 0.00000
												}
											}
										}
									}
								}
							}
						}
					}
					JOINT LeftShoulder
					{
						OFFSET 0.01000 7.91373 5.19711
						CHANNELS 3 Zrotation Xrotation Yrotation
						JOINT LeftArm
						{
							OFFSET 18.41580 0.00000 0.00000
							CHANNELS 3 Zrotation Xrotation Yrotation
							JOINT LeftForeArm
							{
								OFFSET 29.11090 0.00000 0.00000
								CHANNELS 3 Zrotation Xrotation Yrotation
								JOINT LeftHand
								{
									OFFSET 24.65040 0.00000 0.00000
									CHANNELS 3 Zrotation Xrotation Yrotation
									JOINT LeftHandThumb1
									{
										OFFSET 5.35114 -0.85590 3.97906
										CHANNELS 3 Zrotation Xrotation Yrotation
										JOINT LeftHandThumb2
										{
											OFFSET 4.52789 0.00000 0.00000
											CHANNELS 3 Zrotation Xrotation Yrotation
											JOINT LeftHandThumb3
											{
												OFFSET 2.46977 0.00000 0.00000
												CHANNELS 3 Zrotation Xrotation Yrotation
												End site
												{
													OFFSET 0.00000 0.00000 0.00000
												}
											}
										}
									}
									JOINT LeftHandIndex1
									{
										OFFSET 14.26970 0.00000 2.88139
										CHANNELS 3 Zrotation Xrotation Yrotation
										JOINT LeftHandIndex2
										{
											OFFSET 5.48836 0.00000 0.00000
											CHANNELS 3 Zrotation Xrotation Yrotation
											JOINT LeftHandIndex3
											{
												OFFSET 3.01859 0.00000 0.00000
												CHANNELS 3 Zrotation Xrotation Yrotation
												End site
												{
													OFFSET 0.00000 0.00000 0.00000
												}
											}
										}
									}
									JOINT LeftHandMiddle1
									{
										OFFSET 14.26970 0.00000 -0.09147
										CHANNELS 3 Zrotation Xrotation Yrotation
										JOINT LeftHandMiddle2
										{
											OFFSET 6.17440 0.00000 0.00000
											CHANNELS 3 Zrotation Xrotation Yrotation
											JOINT LeftHandMiddle3
											{
												OFFSET 3.56744 0.00000 0.00000
												CHANNELS 3 Zrotation Xrotation Yrotation
												End site
												{
													OFFSET 0.00000 0.00000 0.00000
												}
											}
										}
									}
									JOINT LeftHandRing1
									{
										OFFSET 12.69180 0.00000 -3.06433
										CHANNELS 3 Zrotation Xrotation Yrotation
										JOINT LeftHandRing2
										{
											OFFSET 5.62556 0.00000 0.00000
											CHANNELS 3 Zrotation Xrotation Yrotation
											JOINT LeftHandRing3
											{
												OFFSET 3.56744 0.00000 0.00000
												CHANNELS 3 Zrotation Xrotation Yrotation
												End site
												{
													OFFSET 0.00000 0.00000 0.00000
												}
											}
										}
									}
									JOINT LeftHandPinky1
									{
										OFFSET 11.11390 0.00000 -6.03719
										CHANNELS 3 Zrotation Xrotation Yrotation
										JOINT LeftHandPinky2
										{
											OFFSET 4.52789 0.00000 0.00000
											CHANNELS 3 Zrotation Xrotation Yrotation
											JOINT LeftHandPinky3
											{
												OFFSET 2.46976 0.00000 0.00000
												CHANNELS 3 Zrotation Xrotation Yrotation
												End site
												{
													OFFSET 0.00000 0.00000 0.00000
												}
											}
										}
									}
								}
							}
						}
					}
					JOINT pCube4
					{
						OFFSET 0.00000 10.91090 1.10792
						CHANNELS 3 Zrotation Xrotation Yrotation
						End site
						{
							OFFSET 0.00000 0.00000 0.00000
						}
					}
				}
			}
		}
	}
	JOINT RightUpLeg
	{
		OFFSET -9.98441 0.00000 0.00000
		CHANNELS 3 Zrotation Xrotation Yrotation
		JOINT RightLeg
		{
			OFFSET 0.00000 -42.11790 0.00000
			CHANNELS 3 Zrotation Xrotation Yrotation
			JOINT RightFoot
			{
				OFFSET 0.00000 -45.00020 -0.00001
				CHANNELS 3 Zrotation Xrotation Yrotation
				JOINT RightForeFoot
				{
					OFFSET 0.00000 -3.74820 0.00000
					CHANNELS 3 Zrotation Xrotation Yrotation
					JOINT RightToeBase
					{
						OFFSET 0.00000 0.06325 14.43120
						CHANNELS 3 Zrotation Xrotation Yrotation
						End site
						{
							OFFSET 0.00000 0.00000 0.00000
						}
					}
				}
			}
		}
	}
	JOINT LeftUpLeg
	{
		OFFSET 9.98441 0.00000 0.00000
		CHANNELS 3 Zrotation Xrotation Yrotation
		JOINT LeftLeg
		{
			OFFSET 0.00000 -42.11800 0.00000
			CHANNELS 3 Zrotation Xrotation Yrotation
			JOINT LeftFoot
			{
				OFFSET 0.00000 -45.00070 0.00000
				CHANNELS 3 Zrotation Xrotation Yrotation
				JOINT LeftForeFoot
				{
					OFFSET 0.00000 -3.74824 0.00000
					CHANNELS 3 Zrotation Xrotation Yrotation
					JOINT LeftToeBase
					{
						OFFSET 0.00000 0.06325 14.43110
						CHANNELS 3 Zrotation Xrotation Yrotation
						End site
						{
							OFFSET 0.00000 0.00000 0.00000
						}
					}
				}
			}
		}
	}
}
MOTION
Frames: 4
Frame Time: 0.050000
-0.013010205652970992 -0.0016004191895274333 -0.007300638617143561 -0.016776417879127203 0.0035985723643984094 -0.03055262009452458 5.937076543737678 5.131226070968758 -2.252554984548173 -0.6929714701283292 3.589297755923576 0.36502973166771635 -0.3375613205617415 -0.8989640789422945 -0.24002262613492462 -1.2425652792478017 -0.4571988924137759 -0.31503008361609863 -1.358532027641701 13.099448138899765 2.5458347299589237 0.21323195016381863 -1.107416796128717 8.083258228549603 -0.4348435281620077 -18.32159583705372 0.6675698869094211 -10.77774114356592 3.9062945568621714 -18.327941404697068 85.1336612653886 -8.368453063039171 -0.2656665417745823 28.19798230097413 6.078218518394905 82.61869931729653 9.140400361591405 -0.5071279486271605 -4.59755808828113 4.49151548219821 -0.09986144556670495 -1.5641987388581937 -0.0018075572699946959 0.02607143989229534 -56.20512881970427 -0.01791632647764982 0.03300898703118589 -56.22158647469932 -38.793499202088746 0.0013355878384196088 -0.03124136639582358 -0.02015547127141227 0.024173812419294515 -0.021264131834456017 -0.027213903422462993 0.022092113097403717 0.014868827124469457 -36.70163993687289 -0.029876525419531477 -0.03787331683587632 0.00028616768671175765 -0.01782551254713615 -0.04406866997616111 0.015857039697497556 -0.03928664676042792 0.030328635133149793 -19.736383288184662 -0.03205209121266824 -0.035110211110081266 -0.03727355402590366 0.024504777158182035 0.02130844222103337 0.02308963182211661 -0.00870388410143674 -0.03418234669533479 24.033889763519248 -0.01621389175973202 -0.03759756417400314 28.858172886306146 0.047065327137526806 0.032647011443953274 28.903271447023617 0.012146222226859736 -0.01157883972223744 13.683732655603611 3.0854743379067986 14.78264165132298 -77.57106596028271 12.804997319895117 -19.88749707152604 -28.31325268081775 15.745296727940772 -70.29479300458587 -24.62499920410504 -4.140007789774363 3.376338009975465 -0.45216138108578396 0.023924453929037345 -8.089274839002025 0.020847620989815404 0.0018363548512697098 44.5325650660626 -0.0163779063948482 -0.03256723084379166 44.53877958521181 12.461966529920677 0.005434096007515075 0.00656941603965423 -0.029258989113898466 0.02419404388771166 -0.03434769244770099 0.014499267720726175 -0.012883499055663319 0.0020672921497611367 11.14596759299908 -0.00673835385326779 0.001215278950869188 -0.024743290795647428 0.009492416129642096 0.021546156545911924 0.019032686966048564 0.047508301007758456 -0.0071024074874458795 4.775675123699581 0.0009495240696541393 -0.02445670936141509 0.03278799424250999 0.009943125252576986 0.03735958533099321 0.022677800445367522 0.02773742365970079 0.001497922037652181 -5.580289327517907 -0.020541932862357042 -0.00025206594332026076 -6.739344330915473 -0.004973363810785726 0.03870709178795175 -6.724084076162565 0.017648225597246908 -0.04555832780597487 0.0011703919286440963 -0.02596101957141525 -0.02122256013044893 8.058761930316868 3.4868555689931493 -19.254881026000977 -0.014708029110914891 10.413462847537025 -0.006036641939185485 -5.648238223560217 -15.67939186267156 3.1864143597827317 0.0012632264578151383 0.02517823913501892 0.005465028578505047 -0.030384434668851795 4.703383946404261 -0.03554544415585813 12.444806056796267 -8.265547489740307 6.922266897885131 0.04289983111227904 46.38968059370012 -0.006473237841305008 -4.281619638751609 -14.731103029562771 -3.7999395339716995 -0.004624155754965928 -0.014340037937929859 -0.04495258255949148 0.04455266919146367 -10.783867159574445 0.04986124207883187 
0.014443533010399457 0.009324344863774262 0.035170999391488905 -0.001816271199308324 0.01969857295026329 -0.006015745723751898 5.760852527334913 5.219031966797308 -2.2167331270851243 -0.7207565700431522 3.5959635115846162 0.3718475041700895 -0.265275906821977 -0.8793849440606588 -0.30683035779459494 -1.2318623401726079 -0.46423719861084684 -0.28169382461372117 -1.3611190939666906 12.853190543087765 2.1950279341022907 0.27296998707119163 -1.2414577356461027 7.413672887061093 -0.3218175331950524 -18.372218090553027 0.6145709174306798 -10.525610128561993 3.9125927368427327 -18.218153732523728 85.17002334459136 -7.829358173622377 -0.9438682330025429 27.824085355816656 6.967147517607956 81.59703338549554 8.849125440523164 -0.46888984130880973 -4.476778202318656 4.548519879937432 -0.08084091402043603 -1.5551511872385606 0.022325204747954797 0.04003931601311253 -56.27337221336435 -0.02191750059538326 0.008626493829308145 -56.2116529356787 -38.815541843090884 0.01297777676876526 0.02053935310423527 0.0429028145586164 0.027885210641733663 0.0010406947992611568 -0.04228829346727049 -0.04723340839475431 0.03155251577855258 -36.66532161909804 0.013272986696706998 -0.014678439493451004 -0.020940506776678077 0.04751287273403258 -0.0026291284371963183 -0.003120125768729023 0.031114489051510694 0.0019082222945854162 -19.742088292300092 0.027465265299040954 0.024412916394883043 -0.0018722423625606617 0.009308190101916379 -0.007182464443651774 -0.03172678193761334 -0.01939835686603834 0.04723995922065714 24.072686183115067 0.008861338842488787 0.03778489917437298 28.824499795342625 -0.0028893438355164303 0.005230251094188457 28.873421380339266 -0.022559365094718464 5.810395329134702e-06 13.272636077066005 3.0979828665380515 14.635848227534582 -77.20069830149974 13.971056912686116 -19.324866551692075 -26.114071327195585 16.619324706451646 -68.40090194309397 -24.692624421335648 -4.176617921745929 3.5178229683174167 -0.5094546041453349 0.018665925114744603 -8.106092128772191 0.02826269399483002 -0.03605977692348138 44.53278913816557 -0.04624739375109313 0.02417527494230515 44.53027485503586 12.461984840329333 0.03907707100133062 -0.011434244620618242 -0.008207419890162802 -0.03106842632804254 -0.00544875214185457 0.0020183969495927087 0.03605614473736894 -0.04103997371888879 11.149017631129087 0.02816599453064232 0.031606897372792236 -0.009124416925917533 0.01415380789062847 -0.039587839289467665 -0.02525222212727837 -0.005412734237076462 -0.04409491021242329 4.753320055913053 0.026522888955697696 0.0021428177500213133 0.025144425738116788 -0.03346645744473289 -0.0035392760303710144 -0.025728258321151026 0.015124727376009887 0.021442493842039625 -5.633793666341006 0.014398822521961882 0.034388059101807755 -6.719640162091319 0.014806979216844356 0.013690890129004664 -6.725970542329166 -0.035386668258808374 -0.04240298247630267 0.030308257341760698 0.007446612113015548 0.0036851545206154097 8.078584498438339 3.5047276660564797 -19.237818121667527 0.03143764718908248 10.403292195904518 -0.03273785960695902 -5.612608696675798 -15.697435167541428 3.1475806104537543 -0.01387541023286989 0.03792625134675063 -0.04967322002235086 0.007989103958221572 4.7280871022201465 -0.03247101243459795 12.422568325377096 -8.216037422397141 6.874942778075131 0.03704297112348974 46.3420232109436 0.04363031819280263 -4.323660884324308 -14.767264707354327 -3.8786760349040343 0.007590189011441532 0.005712509384116623 0.04150432100716204 -0.03356018012530921 -10.723970531782 0.0014287296813860683 
0.021663716047127492 0.015656379319330983 -0.02030151082475063 -0.002066064487901548 -0.010684776204114226 0.04000872436739031 5.410555772421504 5.274745426017313 -2.1959251348797966 -0.7502664936028519 3.588555104971228 0.3607531989950445 -0.39940692173857273 -0.8843121474735837 -0.31884762869124456 -1.1895542845973566 -0.40203462391166733 -0.299999902910178 -1.2106959053942952 12.650039204149556 1.9268367316216193 0.2613498714554404 -1.2261287258618812 6.537546733699993 -0.2325687975299403 -18.436471993768357 0.5307233608712173 -10.178066423486252 3.81050646382248 -18.06474277037851 85.00064299533754 -7.166582714018577 -1.679614194948942 26.576863183307765 8.272077570332064 80.25071647357221 8.555050632486182 -0.4498950970169012 -4.321489275974415 4.507168491820739 -0.1294999271466276 -1.5980187908602053 -0.004587441276322784 0.024261023266238396 -56.21243138757621 -0.0034418779819419374 0.013699936132763688 -56.21469667816345 -38.80177718453586 -0.011386024497976188 0.015706444935392392 -0.0015464460408899545 0.031166177080491145 0.03442476474873227 -0.0003747961288189693 -0.049257377174774776 -0.012508793715127302 -36.68713542666375 -0.0027731292114742405 0.01562109722715001 0.011416399877104686 0.008209062469681148 -0.03695170035985424 0.04254259704509446 0.03951928134483724 -0.022486213633886573 -19.712824513550828 -0.015169229036300403 0.020456762843010654 0.0436904316933964 -0.0007883114569772003 -0.008265167170328845 0.043728504072931516 0.04041210668211361 0.02533609055097515 24.017276671496788 0.02278329926183744 -0.007507580639816285 28.83774879780219 0.02520313172583936 -0.03605789413133509 28.87235220080197 -0.021699439244351956 -0.035626417846513915 12.793112225790967 2.9585693225931173 14.491267184305478 -76.59324127451853 14.97495599217596 -18.42336630249996 -22.498225712424166 17.58526575198345 -65.10138624529418 -24.59596023654276 -3.954543026669765 3.5914992682409546 -0.4766786820532006 0.032930859064282725 -8.16315018080724 0.041594438436116134 -0.043047281694358175 44.567303355832976 -0.04583915481768054 0.04539005699404492 44.58205942533036 12.502605646695685 0.025170068718466075 0.04749572026275343 0.009221371563168934 0.011852885690934801 0.03602597200457718 -0.01042024364859484 -0.035168509991396 0.026151816183653545 11.11182406853648 0.03925454472993299 0.03588373851036479 0.004661248682601964 -0.018445907579953402 -0.002220843089549279 -0.04574794819478106 0.03917602491555146 -0.027263194189384415 4.790397387241004 -0.04608965043590844 0.03546225720511081 0.034598725013881136 0.010777016522077913 0.049774412896708656 0.03090305745387069 -0.003939325843531566 0.046882380021036875 -5.639175341761415 0.009907677630656546 -0.035218017600223916 -6.687870006698682 -0.009143569195750847 -0.0019189839239599766 -6.716091842620317 0.0029322647339091795 -0.027468733409602885 -0.02674246008783291 -0.039623869729219226 -0.022232857960292913 8.08173213446016 3.5139185682029344 -19.188421069566257 0.020077513626249 10.348471319147512 0.014417339825254824 -5.6098967814111935 -15.69909154604912 3.1932122378383374 0.014992272213304804 0.03449857926344798 0.022817131928117233 0.018403363722287923 4.681031317568436 -0.0008344162024138142 12.450521388029495 -8.257983631052014 6.9284302661719686 -0.02268281810993581 46.338657170595475 -0.01423172230182751 -4.326631385416902 -14.76440182346513 -3.8331588055128303 0.004592950733286588 0.03937329143089545 -0.032868924902971566 0.03789409301254551 -10.765071377332555 -0.021218994739694134 
-0.030225763983458942 -0.0012836440093311986 -0.003182353761480912 0.006825832720834407 0.02449372541732142 -0.028326198036403977 5.111731584568324 5.369820442170946 -2.1596198190131783 -0.7793854987151568 3.5765208612916024 0.3910378980404732 -0.3720381558016061 -0.8190391794691689 -0.3588912317912326 -1.0779465990403456 -0.43121314108556297 -0.3696785224647084 -1.160096505950924 12.360576127913275 1.7936265158110638 0.19841151620217637 -1.3694811714722792 5.97288941658804 -0.14875739727764842 -18.42701362874506 0.449675197705644 -9.82335704469682 3.745494185104073 -17.898714561096195 84.79420876338872 -5.920295863143652 -2.3153862138065446 23.971694592978437 9.857540816027997 77.94383635735893 8.48497308024378 -0.40668080877724344 -3.945975830289228 4.502682767691817 -0.09137373432287522 -1.5829531550146014 0.02138232600957549 0.012163887095629777 -56.19134568624303 0.02805428410818491 -0.021185009386530045 -56.21318125649266 -38.78595620409017 -0.026828258647449706 0.04456766410720649 -0.0001540782650411087 -0.0018227797845765197 -0.006360324816367234 -0.03163434970387048 -0.030773911147992824 0.0008173809477711552 -36.741932979970144 -0.019197462673075025 -0.010193606093772418 -0.04587549041182956 -0.017747642679916985 -0.03736313466548396 -0.047360287984216744 0.024058704218788824 -0.0007749453576444863 -19.782097370932128 -0.013602557341878478 -0.021627107240434193 0.021605805553537236 0.023658018130542444 0.008446209357702097 0.00897236717132591 0.0026864500735045197 -0.036244587571444505 24.021332303704593 0.03891695029443182 0.030169722287073843 28.81688362585623 0.002283360937849645 0.04679329538902867 28.839400968051873 0.009044730936686283 -0.03443177612107957 12.275052801591183 2.863154904349929 14.324789903501033 -75.80873563381931 15.880897308987663 -17.727773171176946 -18.326398509845408 18.686653877990736 -61.563310424498944 -24.65318623099789 -3.728456008560047 3.758472345343495 -0.486531745615244 0.065718361929688 -8.161430282950986 -0.027282247687162104 -0.029185501993966738 44.57756637563925 0.01987217376206493 0.015582919137339772 44.54725096524974 12.41421075424824 0.0032842283845419375 -0.02740441036520937 0.02438760492682349 -0.018541174061397846 0.01168571024993354 0.006028766091717632 0.04254602970451304 0.037136871814655636 11.151400559814627 0.03036239324695428 -0.03560651195897264 0.0060043570979319795 -0.015128354935582365 -0.006860999352184715 0.03652289176269643 0.013742506766350877 0.047963949092762775 4.768438182586573 0.025474898709038567 -0.018029488815882913 -0.00847089578101526 -0.01248375512371318 0.03462687056988563 0.032695631394808494 -0.03897494485937642 0.020421465374596704 -5.588439461208202 -0.010611568002113785 0.006694952942489334 -6.716052470507531 -0.049671512886198844 0.004807855936036878 -6.754756555871853 0.015303925610973379 0.025664835920434545 -0.047461538704157785 -0.04019754134900087 0.049767421435824785 8.031209914982185 3.48087274192325 -19.194611705616985 -0.011001737976904053 10.442125092516896 -0.03314586783528048 -5.621708840858187 -15.673477861461375 3.1687709128412407 0.03148598812085279 0.014024026132899232 -0.01828195603399264 -0.017163100113046878 4.659214086808095 -0.0341677770636892 12.488289338442682 -8.189936927805283 6.860118717145086 0.021045222650685026 46.407012663962355 0.007978405058368006 -4.349703982045088 -14.79174115610108 -3.852773301667987 -0.010649211253519654 0.022760742609024134 0.0005703435134988666 0.018397629351527202 -10.785324572114797 0.013594688729603644 
